<svg width="21" height="21" viewBox="0 0 21 21" fill="none" xmlns="http://www.w3.org/2000/svg">
<g clip-path="url(#clip0_953_2554)">
<mask id="mask0_953_2554" style="mask-type:luminance" maskUnits="userSpaceOnUse" x="0" y="0" width="21" height="21">
<path d="M20.8403 0H0V20.8403H20.8403V0Z" fill="white"/>
</mask>
<g mask="url(#mask0_953_2554)">
<mask id="mask1_953_2554" style="mask-type:luminance" maskUnits="userSpaceOnUse" x="0" y="0" width="21" height="21">
<path d="M20.8403 0H0V20.8403H20.8403V0Z" fill="white"/>
</mask>
<g mask="url(#mask1_953_2554)">
<path fill-rule="evenodd" clip-rule="evenodd" d="M9.73922 1.89463C8.8777 3.07771 7.37775 3.51681 6.03377 3.13281C5.45881 2.96854 4.85418 3.37612 4.81838 4.01018C4.80979 5.43292 3.90447 6.73084 2.53173 7.19173C2.03247 7.36971 1.79209 8.03464 2.12381 8.53221C2.90197 9.69944 2.90197 11.2477 2.12381 12.415L2.11568 12.4272L2.1071 12.439C1.76042 12.9191 1.97329 13.5693 2.52488 13.7531C3.90352 14.2127 4.80307 15.5103 4.86781 16.87L4.8679 16.8717C4.89522 17.4728 5.46284 17.877 6.03377 17.7138C7.40502 17.322 8.89001 17.8416 9.73421 18.9455C10.0732 19.3888 10.8086 19.391 11.1515 18.9521C12.013 17.769 13.513 17.3298 14.857 17.7138C15.4234 17.8757 15.9866 17.4792 16.0221 16.8857C16.0311 15.4634 16.9363 14.166 18.3088 13.7052C18.808 13.5272 19.0484 12.8623 18.7166 12.3647C17.9385 11.1975 17.9385 9.64918 18.7166 8.48195L18.7247 8.46976L18.7334 8.45788C19.0801 7.97785 18.8672 7.32762 18.3155 7.14375L18.2938 7.13649L18.2725 7.12796C16.9901 6.615 16.0874 5.39517 16.0228 3.97498C15.9955 3.37379 15.4279 2.96968 14.857 3.13281C13.4857 3.5246 12.0007 3.00506 11.1565 1.90112C10.8176 1.45787 10.082 1.45571 9.73922 1.89463ZM8.4926 0.951655C9.45881 -0.311847 11.4319 -0.311847 12.3981 0.951655C12.8607 1.55662 13.6878 1.84128 14.4276 1.62992C15.9677 1.1899 17.511 2.29367 17.5842 3.90401C17.6199 4.68895 18.1167 5.37431 18.8353 5.66957C20.3703 6.1992 20.9512 8.03784 20.0105 9.359C19.589 10.0002 19.5913 10.8588 20.0171 11.4977C20.8908 12.8081 20.3292 14.654 18.8209 15.1819L18.8099 15.1858C18.082 15.4285 17.5851 16.1287 17.5851 16.9071V16.9249L17.5842 16.9426C17.511 18.553 15.9677 19.6568 14.4276 19.2167C13.6646 18.9987 12.8574 19.2596 12.4108 19.8778L12.4046 19.8865L12.3981 19.895C11.4319 21.1585 9.45881 21.1585 8.4926 19.895C8.02999 19.29 7.20292 19.0054 6.46316 19.2167C4.92339 19.6567 3.3803 18.5534 3.30653 16.9436C3.27046 16.1925 2.76275 15.4801 2.03061 15.236C0.476661 14.718 -0.115967 12.8664 0.829949 11.5379C1.25142 10.8967 1.2492 10.0381 0.823294 9.39922C-0.0503546 8.08875 0.51119 6.2429 2.01958 5.71497L2.03058 5.71112C2.75845 5.46849 3.25541 4.76821 3.25541 3.98976V3.97277L3.25615 3.95581C3.32878 2.28552 4.93118 1.19221 6.46316 1.62992C7.22616 1.84792 8.03328 1.58714 8.47985 0.968816L8.48611 0.960148L8.4926 0.951655ZM6.47146 7.20622C6.47146 6.63567 6.93399 6.17314 7.50455 6.17314C8.07511 6.17314 8.53764 6.63567 8.53764 7.20622C8.53764 7.77679 8.07511 8.23932 7.50455 8.23932C6.93399 8.23932 6.47146 7.77679 6.47146 7.20622ZM7.50455 4.92272C6.2434 4.92272 5.22104 5.94508 5.22104 7.20622C5.22104 8.46738 6.2434 9.48974 7.50455 9.48974C8.7657 9.48974 9.78806 8.46738 9.78806 7.20622C9.78806 5.94508 8.7657 4.92272 7.50455 4.92272ZM12.3521 13.5395C12.3521 12.9689 12.8146 12.5063 13.3852 12.5063C13.9557 12.5063 14.4183 12.9689 14.4183 13.5395C14.4183 14.11 13.9557 14.5726 13.3852 14.5726C12.8146 14.5726 12.3521 14.11 12.3521 13.5395ZM13.3852 11.2559C12.1241 11.2559 11.1016 12.2784 11.1016 13.5395C11.1016 14.8007 12.1241 15.823 13.3852 15.823C14.6464 15.823 15.6687 14.8007 15.6687 13.5395C15.6687 12.2784 14.6464 11.2559 13.3852 11.2559ZM7.14159 14.7869L14.9825 6.99621L14.1012 6.1092L6.26026 13.8998L7.14159 14.7869Z" fill="#909090"/>
</g>
</g>
</g>
<defs>
<clipPath id="clip0_953_2554">
<rect width="20.8403" height="20.8403" fill="white"/>
</clipPath>
</defs>
</svg>
