<svg width="19" height="21" viewBox="0 0 19 21" fill="none" xmlns="http://www.w3.org/2000/svg">
<path d="M0.532593 5.82138L9.12923 9.64214L9.71117 8.33282L1.11449 4.51208L0.532593 5.82138ZM10.1365 19.4944V8.98746H8.70379V19.4944H10.1365ZM9.71117 9.64214L18.3078 5.82138L17.7258 4.51208L9.12923 8.33282L9.71117 9.64214Z" fill="#909090"/>
<path d="M0.823486 15.3013V5.53914C0.823486 5.31266 0.956865 5.10742 1.16384 5.01544L9.18735 1.44942C9.3356 1.38356 9.50463 1.38356 9.65291 1.44942L17.6764 5.01544C17.8834 5.10742 18.0168 5.31266 18.0168 5.53914V15.3013C18.0168 15.5278 17.8834 15.733 17.6764 15.825L9.65291 19.391C9.50463 19.4568 9.3356 19.4568 9.18735 19.391L1.16384 15.825C0.956865 15.733 0.823486 15.5278 0.823486 15.3013Z" stroke="#909090" stroke-width="1.37546" stroke-linecap="round" stroke-linejoin="round"/>
<path d="M5.12183 3.25635L13.3781 6.92581C13.5851 7.0178 13.7185 7.22303 13.7185 7.44952V10.8978" stroke="#909090" stroke-width="1.37546" stroke-linecap="round" stroke-linejoin="round"/>
</svg>
