<svg width="21" height="21" viewBox="0 0 21 21" fill="none" xmlns="http://www.w3.org/2000/svg">
<g clip-path="url(#clip0_953_2544)">
<mask id="mask0_953_2544" style="mask-type:luminance" maskUnits="userSpaceOnUse" x="0" y="0" width="21" height="21">
<path d="M20.8403 0H0V20.8403H20.8403V0Z" fill="white"/>
</mask>
<g mask="url(#mask0_953_2544)">
<mask id="mask1_953_2544" style="mask-type:luminance" maskUnits="userSpaceOnUse" x="0" y="0" width="21" height="21">
<path d="M20.8403 0H0V20.8403H20.8403V0Z" fill="white"/>
</mask>
<g mask="url(#mask1_953_2544)">
<path fill-rule="evenodd" clip-rule="evenodd" d="M18.5478 7.76534L18.9441 7.87986L18.9545 7.91109C19.4993 8.07289 19.9771 8.40606 20.3169 8.86099C20.6567 9.31591 20.8403 9.86825 20.8403 10.4358C20.8403 11.0033 20.6567 11.5557 20.3169 12.0106C19.9771 12.4655 19.4993 12.7987 18.9545 12.9605L18.5582 13.075C18.4356 13.1144 18.3221 13.1782 18.2246 13.2624C18.1312 13.3466 18.0566 13.4494 18.0056 13.5643C17.9529 13.6818 17.9313 13.8109 17.943 13.9392C17.952 14.0665 17.9875 14.1906 18.0473 14.3036L18.2454 14.6783C18.5208 15.1769 18.6262 15.7514 18.5458 16.3151C18.4654 16.8787 18.2035 17.4009 17.7997 17.803C17.3959 18.205 16.8721 18.465 16.3074 18.5436C15.7427 18.6222 15.1676 18.5153 14.6691 18.2389L14.3041 18.0411C14.1911 17.9814 14.0668 17.9459 13.9392 17.937C13.8109 17.9271 13.682 17.9485 13.5638 17.9995C13.4488 18.0503 13.3457 18.1248 13.2614 18.2181C13.1771 18.3154 13.1133 18.4287 13.0738 18.5512L12.959 18.9573C12.797 19.5012 12.4634 19.9784 12.0078 20.3178C11.5521 20.657 10.999 20.8403 10.4306 20.8403C9.86222 20.8403 9.30903 20.657 8.85343 20.3178C8.39782 19.9784 8.06416 19.5012 7.90211 18.9573L7.77699 18.5512C7.74566 18.4275 7.68485 18.3132 7.59973 18.2181C7.51355 18.1223 7.40655 18.0475 7.28693 17.9995C7.17122 17.9526 7.04673 17.9312 6.92199 17.937C6.79442 17.9459 6.67011 17.9814 6.55706 18.0411L6.1817 18.2389C5.68459 18.5218 5.10726 18.6315 4.54084 18.5504C3.97442 18.4693 3.45117 18.2023 3.05368 17.7912C2.6388 17.3966 2.36822 16.8746 2.28507 16.3085C2.20192 15.7425 2.311 15.1649 2.5949 14.6679L2.80343 14.2931C2.86324 14.1802 2.89877 14.0561 2.90771 13.9287C2.90733 13.8012 2.8862 13.6746 2.84514 13.5539C2.79418 13.4391 2.71957 13.3361 2.62618 13.252C2.5287 13.1678 2.41523 13.104 2.29253 13.0646L1.88588 12.9501C1.3411 12.7883 0.863211 12.4551 0.523394 12.0002C0.183576 11.5452 0 10.9929 0 10.4254C0 9.85784 0.183576 9.3055 0.523394 8.85058C0.863211 8.39564 1.3411 8.06248 1.88588 7.90068L2.29253 7.77575C2.41641 7.74448 2.53088 7.68375 2.62618 7.59876C2.72209 7.5127 2.79699 7.40586 2.84514 7.28643C2.8853 7.16572 2.90298 7.03869 2.89728 6.91162C2.88995 6.78396 2.85434 6.6595 2.79301 6.54723L2.58447 6.17244C2.30056 5.67546 2.1915 5.09788 2.27464 4.5318C2.35779 3.96572 2.62838 3.44374 3.04325 3.0491C3.43848 2.63485 3.96125 2.36467 4.52818 2.28164C5.09511 2.19862 5.67355 2.30754 6.17127 2.59102L6.54664 2.79923C6.65969 2.85895 6.78399 2.89442 6.91157 2.90335C7.0363 2.90905 7.1608 2.88774 7.27651 2.84088C7.39612 2.7928 7.50312 2.71801 7.58931 2.62225C7.67443 2.52709 7.73524 2.41279 7.76657 2.28909L7.89168 1.88306C8.05373 1.33909 8.38739 0.861917 8.843 0.522609C9.29861 0.183301 9.85179 0 10.4202 0C10.9886 0 11.5417 0.183301 11.9974 0.522609C12.4529 0.861917 12.7866 1.33909 12.9486 1.88306L13.0633 2.28909C13.1028 2.4116 13.1667 2.52491 13.251 2.62225C13.333 2.71558 13.4369 2.78713 13.5534 2.83047C13.6721 2.88052 13.7999 2.90534 13.9287 2.90335C14.0564 2.89442 14.1807 2.85895 14.2937 2.79923L14.6587 2.59102C15.1585 2.3204 15.7326 2.21831 16.2953 2.29995C16.858 2.38159 17.3792 2.6426 17.7813 3.04406C18.1833 3.44553 18.4447 3.96598 18.5265 4.52783C18.6082 5.0897 18.506 5.6629 18.235 6.16202L18.0369 6.53682C17.9755 6.64909 17.94 6.77355 17.9326 6.90121C17.9217 7.02603 17.9433 7.15153 17.9952 7.2656C18.046 7.38359 18.1205 7.4899 18.2141 7.57793C18.3117 7.66215 18.4251 7.72589 18.5478 7.76534ZM16.1497 14.0016C16.1313 13.61 16.1988 13.2191 16.3478 12.8564C16.5171 12.4843 16.7705 12.1564 17.088 11.8986C17.3889 11.633 17.745 11.4374 18.1308 11.3259L18.5374 11.2114C18.7132 11.1584 18.8672 11.0504 18.9767 10.9031C19.0861 10.7559 19.1453 10.5775 19.1453 10.3941C19.1453 10.2108 19.0861 10.0323 18.9767 9.88513C18.8672 9.73795 18.7132 9.62986 18.5374 9.57686L18.1308 9.45194C17.7439 9.34872 17.3867 9.15615 17.088 8.88974C16.7945 8.62813 16.563 8.30448 16.4103 7.94232C16.2623 7.57932 16.1948 7.18864 16.2122 6.7971C16.2345 6.40291 16.345 6.01871 16.5355 5.6727L16.7335 5.2979C16.8309 5.13351 16.8694 4.94098 16.8429 4.75186C16.8164 4.56272 16.7263 4.38818 16.5876 4.25679C16.455 4.11982 16.2804 4.03106 16.0913 4.00466C15.9024 3.97824 15.7101 4.01569 15.5449 4.11104L15.18 4.31925C14.8327 4.50613 14.4479 4.61286 14.0539 4.63159C13.4605 4.66857 12.8721 4.50186 12.3867 4.15911C11.9012 3.81634 11.5476 3.31816 11.3847 2.74718L11.2699 2.34114C11.2169 2.16563 11.1086 2.01184 10.9612 1.90252C10.8138 1.79322 10.635 1.73419 10.4514 1.73419C10.2678 1.73419 10.0891 1.79322 9.94168 1.90252C9.79427 2.01184 9.68603 2.16563 9.63295 2.34114L9.50783 2.74718C9.40303 3.13292 9.21033 3.48923 8.94479 3.78829C8.68241 4.07846 8.35816 4.30617 7.99595 4.4546C7.63287 4.60397 7.24125 4.67152 6.84901 4.65241C6.45498 4.63368 6.07017 4.52695 5.72292 4.34008L5.35799 4.14227C5.19392 4.04563 5.00224 4.00646 4.81335 4.03098C4.62446 4.05551 4.44917 4.1423 4.31531 4.27761C4.17971 4.41097 4.09192 4.58524 4.06553 4.77346C4.03914 4.96167 4.07563 5.15331 4.16934 5.31872L4.3883 5.69353C4.57545 6.04026 4.68234 6.42448 4.7011 6.81793C4.72383 7.20978 4.65604 7.60161 4.50299 7.96314C4.35433 8.32482 4.12629 8.64857 3.83568 8.91056C3.53618 9.17571 3.17933 9.36812 2.79301 9.47276L2.38636 9.59769C2.21025 9.64797 2.05561 9.75473 1.94631 9.9015C1.83701 10.0483 1.77914 10.2269 1.78162 10.4098C1.78111 10.5892 1.83725 10.7642 1.94207 10.91C2.0469 11.0558 2.19506 11.1649 2.36551 11.2218L2.77216 11.3363C3.15737 11.4491 3.51324 11.6444 3.81483 11.909C4.10977 12.1694 4.34152 12.4934 4.49257 12.8564C4.63795 13.2199 4.70201 13.6107 4.68025 14.0016C4.66149 14.395 4.5546 14.7792 4.36745 15.126L4.16934 15.4904C4.0784 15.6521 4.0427 15.8391 4.06765 16.0229C4.0926 16.2067 4.17684 16.3775 4.30762 16.5092C4.43841 16.641 4.60861 16.7267 4.79248 16.7531C4.97636 16.7797 5.16389 16.7457 5.32671 16.6564L5.69164 16.4587C6.03503 16.2699 6.41608 16.1597 6.80731 16.1358H6.92199C7.27898 16.1352 7.63281 16.2023 7.96467 16.3337C8.32524 16.4898 8.64861 16.7205 8.9135 17.0104C9.18031 17.3085 9.37319 17.6652 9.47655 18.0515L9.60166 18.4576C9.65474 18.633 9.76299 18.7868 9.9104 18.8961C10.0578 19.0054 10.2366 19.0645 10.4202 19.0645C10.6038 19.0645 10.7825 19.0054 10.9299 18.8961C11.0774 18.7868 11.1856 18.633 11.2387 18.4576L11.3534 18.0515C11.4649 17.6664 11.6608 17.3107 11.9268 17.0104C12.1876 16.7159 12.5121 16.4845 12.8757 16.3337C13.2402 16.1893 13.6307 16.1219 14.0226 16.1358C14.4173 16.1581 14.8022 16.2685 15.1487 16.4587L15.5136 16.6564C15.6764 16.7457 15.864 16.7797 16.0479 16.7531C16.2317 16.7267 16.402 16.641 16.5327 16.5092C16.6635 16.3775 16.7477 16.2067 16.7727 16.0229C16.7976 15.8391 16.762 15.6521 16.671 15.4904L16.4729 15.126C16.2824 14.78 16.172 14.3958 16.1497 14.0016ZM8.79882 6.47435C9.31524 6.26357 9.86748 6.15399 10.4254 6.15161C11.5519 6.15777 12.6307 6.60658 13.4283 7.40094C14.2235 8.1989 14.67 9.27883 14.67 10.4045C14.67 11.5302 14.2235 12.6102 13.4283 13.4082C12.6271 14.2022 11.5439 14.6475 10.415 14.6471C9.8566 14.6493 9.30348 14.5396 8.78839 14.3243C8.27187 14.1158 7.80351 13.804 7.41206 13.4082C6.81537 12.8144 6.40865 12.0572 6.24345 11.2324C6.07824 10.4076 6.162 9.55242 6.48408 8.77521C6.92688 7.73704 7.7571 6.9118 8.79882 6.47435ZM12.3436 12.3252C12.8529 11.8168 13.1413 11.1287 13.1468 10.4098C13.148 10.0525 13.0787 9.69842 12.9427 9.36793C12.8067 9.03743 12.6067 8.73696 12.3544 8.4837C12.1029 8.2279 11.8027 8.02513 11.4714 7.88742C11.14 7.74971 10.7842 7.67987 10.4254 7.68205C9.88801 7.68514 9.36349 7.84642 8.91745 8.14571C8.47143 8.44498 8.1237 8.86897 7.91781 9.3646C7.71191 9.86024 7.65699 10.4055 7.75991 10.9321C7.86283 11.4587 8.11903 11.9434 8.49644 12.3254C9.00956 12.8344 9.7021 13.1222 10.4254 13.127C11.1454 13.1216 11.8345 12.8336 12.3436 12.3252Z" fill="#909090"/>
</g>
</g>
</g>
<defs>
<clipPath id="clip0_953_2544">
<rect width="20.8403" height="20.8403" fill="white"/>
</clipPath>
</defs>
</svg>
