<svg width="21" height="21" viewBox="0 0 21 21" fill="none" xmlns="http://www.w3.org/2000/svg">
<mask id="mask0_953_2521" style="mask-type:luminance" maskUnits="userSpaceOnUse" x="1" y="1" width="19" height="19">
<path d="M4.16532 18.0016L3.93485 17.944C3.51351 17.8352 3.12862 17.6128 2.82051 17.3001C2.29621 16.7842 1.99195 16.0785 1.97341 15.3357C1.96482 15.0481 1.99793 14.7667 2.06657 14.4879C2.14504 14.1603 2.26885 13.8514 2.43067 13.5563C2.68934 13.0849 3.02646 12.6748 3.42365 12.3134C3.724 12.0396 4.05008 11.8007 4.40069 11.5957C4.72801 11.4018 5.03449 11.1793 5.32747 10.9367C5.69524 10.6328 6.0385 10.3002 6.37808 9.96632C6.67842 9.66997 6.97632 9.37112 7.28892 9.08978C7.52551 8.87721 7.76947 8.67464 8.03427 8.49708C8.36526 8.27575 8.71709 8.1007 9.11061 8.01567C9.40482 7.95315 9.70272 7.94314 10.0006 7.98941C10.339 8.03942 10.665 8.13071 10.9789 8.267C11.4569 8.47582 11.8493 8.79218 12.1594 9.20982C12.3715 9.49616 12.5394 9.80627 12.6903 10.1276C12.8496 10.4678 12.9881 10.8154 13.1352 11.1618C13.3007 11.5506 13.4748 11.937 13.6796 12.3071C13.8842 12.6773 14.1196 13.0274 14.3856 13.3563C14.708 13.7539 14.9815 14.1815 15.1948 14.6442C15.3787 15.0431 15.511 15.4557 15.5784 15.8884C15.6312 16.2247 15.641 16.5611 15.5993 16.9012C15.5344 17.4139 15.359 17.8878 15.044 18.3054C14.751 18.693 14.3783 18.9806 13.9357 19.182C13.614 19.3341 13.2681 19.426 12.9145 19.4533C12.788 19.4627 12.6611 19.4627 12.5345 19.4533C12.5162 19.4508 12.499 19.4508 12.4819 19.4508C12.4634 19.4571 12.4475 19.4471 12.4292 19.4471C12.4156 19.4458 12.4009 19.437 12.3862 19.4433L12.0675 19.387C12.0552 19.377 12.0405 19.3808 12.027 19.3758L11.9903 19.3695L11.9596 19.3645C11.692 19.3017 11.4309 19.2131 11.18 19.0994C10.7509 18.9181 10.3377 18.7056 9.91235 18.5155C9.56906 18.3597 9.21604 18.2273 8.85563 18.1191C8.60471 18.0478 8.34904 17.995 8.09066 17.9615C7.88369 17.9355 7.67514 17.9252 7.46667 17.9303C7.056 17.9353 6.64654 17.9728 6.23832 18.0103C5.80672 18.0579 5.37298 18.083 4.93886 18.0853C4.76196 18.0868 4.58523 18.0735 4.4105 18.0453C4.37372 18.0378 4.33817 18.0366 4.30262 18.0303C4.25604 18.0191 4.20945 18.0191 4.16532 18.0016ZM14.7865 2.16495C15.3504 2.33376 15.7379 2.70013 15.9916 3.2153C16.1656 3.56917 16.2478 3.94555 16.2698 4.33693C16.2895 4.67454 16.26 5.00716 16.189 5.33727C16.0614 5.93983 15.8085 6.50742 15.4472 7.00158C15.1935 7.35169 14.8932 7.65305 14.5352 7.89688C14.221 8.11664 13.8653 8.26699 13.4908 8.33827C13.2259 8.38951 12.9534 8.38525 12.6903 8.32577C12.2485 8.22581 11.8581 7.96314 11.5943 7.58802C11.3691 7.26995 11.2201 6.90253 11.1591 6.51516C11.1126 6.24489 11.0986 5.96987 11.1175 5.69614C11.1297 5.50857 11.1541 5.32101 11.1934 5.13845C11.3841 4.23876 11.8529 3.42526 12.5309 2.81767C12.8324 2.55633 13.1671 2.35001 13.5471 2.21997C13.8245 2.12346 14.1175 2.08269 14.4101 2.09993C14.572 2.11118 14.6357 2.12369 14.7865 2.16495ZM1.14715 6.66146C1.1876 6.4889 1.2489 6.32385 1.32491 6.16379C1.47201 5.85119 1.67184 5.57985 1.94521 5.36478C2.25046 5.1247 2.59739 4.9959 2.98723 4.98715C3.30474 4.9809 3.60263 5.05967 3.88213 5.20097C4.20577 5.36478 4.47548 5.5961 4.70349 5.8737C5.05533 6.30384 5.27599 6.79651 5.39245 7.33669C5.48187 7.75586 5.49433 8.18831 5.42923 8.61212C5.38755 8.87596 5.31522 9.12979 5.20366 9.37237C5.06151 9.69675 4.84447 9.9812 4.57109 10.2014C4.25635 10.456 3.86451 10.5908 3.46288 10.5828C3.16331 10.5766 2.86935 10.4986 2.60475 10.3552C2.25369 10.1665 1.94935 9.89886 1.71474 9.57244C1.48422 9.26014 1.30951 8.9088 1.19864 8.53459C1.08668 8.16983 1.0341 7.78883 1.04295 7.40671L1.05153 7.20414C1.05031 7.17288 1.05766 7.14162 1.05643 7.11161C1.0552 7.09911 1.05888 7.08661 1.06011 7.0741C1.06011 7.05659 1.07237 7.04159 1.06501 7.02408L1.10792 6.7815C1.12631 6.7615 1.12386 6.73524 1.12999 6.71273C1.13367 6.69522 1.13244 6.67522 1.14715 6.66146ZM5.60943 3.49415C5.68468 3.03666 5.84443 2.59791 6.08018 2.20121C6.25536 1.90441 6.48563 1.64532 6.7581 1.43846C7.05722 1.21463 7.3919 1.07584 7.76947 1.04708C8.14705 1.01957 8.49888 1.1071 8.82497 1.29341C9.11306 1.45721 9.35089 1.67854 9.54948 1.93988C9.86822 2.35752 10.0644 2.82892 10.1747 3.33785C10.2841 3.84413 10.297 4.36712 10.2127 4.87836C10.1759 5.11219 10.1195 5.34102 10.0398 5.56609C9.88208 6.03399 9.61586 6.45609 9.26385 6.79651C9.04045 7.01178 8.77346 7.17441 8.48172 7.27292C8.15491 7.38329 7.80394 7.39589 7.47035 7.30918C7.16974 7.23047 6.89084 7.08245 6.65513 6.87653C6.35032 6.61254 6.10382 6.28567 5.93184 5.91746C5.72572 5.48665 5.60136 5.01996 5.5653 4.542C5.53646 4.19227 5.5521 3.84021 5.60943 3.49415ZM19.2954 10.1126L19.2856 10.1689C19.1814 10.6291 18.9779 11.0442 18.7008 11.4256C18.4843 11.7247 18.2238 11.9878 17.9285 12.2059C17.5512 12.4925 17.1133 12.6853 16.6499 12.7686C16.3693 12.8198 16.0814 12.8143 15.8028 12.7523C15.401 12.6658 15.0423 12.4362 14.7914 12.1046C14.5868 11.8315 14.4569 11.5078 14.415 11.1668C14.373 10.861 14.385 10.5502 14.4507 10.2489C14.5928 9.5925 14.9165 8.99145 15.3836 8.51709C15.5429 8.34953 15.717 8.20073 15.907 8.06818C16.2901 7.79428 16.731 7.61648 17.1942 7.54926C17.4627 7.51425 17.7299 7.523 17.9935 7.58927C18.3955 7.69181 18.7241 7.90688 18.9718 8.23699C19.1961 8.53709 19.3114 8.87596 19.3518 9.24358C19.3739 9.44615 19.3714 9.64872 19.342 9.85128L19.3322 9.90755C19.3175 9.97507 19.3052 10.0438 19.2954 10.1126Z" fill="white"/>
</mask>
<g mask="url(#mask0_953_2521)">
<path d="M4.16532 18.0016L3.93485 17.944C3.51351 17.8352 3.12862 17.6128 2.82051 17.3001C2.29621 16.7842 1.99195 16.0785 1.97341 15.3357C1.96482 15.0481 1.99793 14.7667 2.06657 14.4879C2.14504 14.1603 2.26885 13.8514 2.43067 13.5563C2.68934 13.0849 3.02646 12.6748 3.42365 12.3134C3.724 12.0396 4.05008 11.8007 4.40069 11.5957C4.72801 11.4018 5.03449 11.1793 5.32747 10.9367C5.69524 10.6328 6.0385 10.3002 6.37808 9.96632C6.67842 9.66997 6.97632 9.37112 7.28892 9.08978C7.52551 8.87721 7.76947 8.67464 8.03427 8.49708C8.36526 8.27575 8.71709 8.1007 9.11061 8.01567C9.40482 7.95315 9.70272 7.94314 10.0006 7.98941C10.339 8.03942 10.665 8.13071 10.9789 8.267C11.4569 8.47582 11.8493 8.79218 12.1594 9.20982C12.3715 9.49616 12.5394 9.80627 12.6903 10.1276C12.8496 10.4678 12.9881 10.8154 13.1352 11.1618C13.3007 11.5506 13.4748 11.937 13.6796 12.3071C13.8842 12.6773 14.1196 13.0274 14.3856 13.3563C14.708 13.7539 14.9815 14.1815 15.1948 14.6442C15.3787 15.0431 15.511 15.4557 15.5784 15.8884C15.6312 16.2247 15.641 16.5611 15.5993 16.9012C15.5344 17.4139 15.359 17.8878 15.044 18.3054C14.751 18.693 14.3783 18.9806 13.9357 19.182C13.614 19.3341 13.2681 19.426 12.9145 19.4533C12.788 19.4627 12.6611 19.4627 12.5345 19.4533C12.5162 19.4508 12.499 19.4508 12.4819 19.4508C12.4634 19.4571 12.4475 19.447 12.4292 19.447C12.4156 19.4458 12.4009 19.437 12.3862 19.4433L12.0675 19.387C12.0552 19.377 12.0405 19.3808 12.027 19.3758L11.9903 19.3695L11.9596 19.3645C11.692 19.3017 11.4309 19.2131 11.18 19.0994C10.7509 18.9181 10.3377 18.7056 9.91235 18.5155C9.56906 18.3597 9.21604 18.2273 8.85563 18.1191C8.60471 18.0478 8.34904 17.995 8.09066 17.9616C7.88369 17.9355 7.67514 17.9252 7.46667 17.9303C7.056 17.9353 6.64654 17.9728 6.23832 18.0103C5.80672 18.0579 5.37298 18.0831 4.93886 18.0853C4.76196 18.0868 4.58523 18.0735 4.4105 18.0453C4.37372 18.0378 4.33817 18.0366 4.30262 18.0303C4.25604 18.0191 4.20945 18.0191 4.16532 18.0016ZM14.7865 2.16495C15.3504 2.33376 15.7379 2.70013 15.9916 3.2153C16.1656 3.56917 16.2478 3.94555 16.2698 4.33693C16.2895 4.67454 16.26 5.00716 16.189 5.33727C16.0614 5.93983 15.8085 6.50742 15.4472 7.00158C15.1935 7.35169 14.8932 7.65305 14.5352 7.89688C14.221 8.11664 13.8653 8.26699 13.4908 8.33828C13.2259 8.38951 12.9534 8.38525 12.6903 8.32577C12.2485 8.22581 11.8581 7.96314 11.5943 7.58802C11.3691 7.26995 11.2201 6.90253 11.1591 6.51516C11.1126 6.24489 11.0986 5.96987 11.1175 5.69614C11.1297 5.50857 11.1541 5.32101 11.1934 5.13845C11.3841 4.23876 11.8529 3.42526 12.5309 2.81767C12.8324 2.55633 13.1671 2.35001 13.5471 2.21997C13.8245 2.12346 14.1175 2.08269 14.4101 2.09993C14.572 2.11118 14.6357 2.12369 14.7865 2.16495ZM1.14715 6.66146C1.1876 6.4889 1.2489 6.32385 1.32491 6.16379C1.47201 5.85119 1.67184 5.57985 1.94521 5.36478C2.25046 5.1247 2.59739 4.9959 2.98723 4.98715C3.30474 4.9809 3.60263 5.05967 3.88213 5.20097C4.20577 5.36478 4.47548 5.5961 4.70349 5.8737C5.05533 6.30384 5.27599 6.79651 5.39245 7.33669C5.48187 7.75586 5.49433 8.18831 5.42923 8.61212C5.38754 8.87596 5.31522 9.12979 5.20366 9.37237C5.06151 9.69675 4.84447 9.9812 4.57109 10.2014C4.25635 10.456 3.86451 10.5908 3.46288 10.5828C3.16331 10.5766 2.86935 10.4986 2.60475 10.3552C2.25369 10.1665 1.94935 9.89886 1.71474 9.57244C1.48422 9.26014 1.30951 8.9088 1.19864 8.53459C1.08668 8.16983 1.0341 7.78883 1.04295 7.40671L1.05153 7.20414C1.05031 7.17288 1.05766 7.14162 1.05643 7.11161C1.0552 7.09911 1.05888 7.0866 1.06011 7.0741C1.06011 7.05659 1.07237 7.04159 1.06501 7.02408L1.10792 6.7815C1.12631 6.7615 1.12386 6.73524 1.12999 6.71273C1.13367 6.69522 1.13244 6.67522 1.14715 6.66146ZM5.60943 3.49415C5.68468 3.03666 5.84443 2.59791 6.08018 2.20121C6.25536 1.90441 6.48563 1.64532 6.7581 1.43846C7.05722 1.21463 7.3919 1.07584 7.76947 1.04708C8.14705 1.01957 8.49888 1.1071 8.82497 1.29341C9.11306 1.45721 9.35089 1.67854 9.54948 1.93988C9.86822 2.35752 10.0644 2.82892 10.1747 3.33785C10.2841 3.84413 10.297 4.36712 10.2127 4.87836C10.1759 5.11219 10.1195 5.34102 10.0398 5.56609C9.88208 6.03399 9.61586 6.45609 9.26385 6.79651C9.04045 7.01178 8.77346 7.17441 8.48172 7.27292C8.15491 7.38329 7.80394 7.39589 7.47035 7.30918C7.16974 7.23047 6.89084 7.08245 6.65513 6.87653C6.35032 6.61254 6.10382 6.28567 5.93184 5.91746C5.72572 5.48665 5.60136 5.01996 5.5653 4.542C5.53646 4.19227 5.5521 3.84021 5.60943 3.49415ZM19.2954 10.1126L19.2856 10.1689C19.1814 10.6291 18.9779 11.0442 18.7008 11.4256C18.4843 11.7247 18.2238 11.9878 17.9285 12.2059C17.5512 12.4925 17.1133 12.6853 16.6499 12.7686C16.3693 12.8198 16.0814 12.8143 15.8028 12.7523C15.401 12.6658 15.0423 12.4362 14.7914 12.1046C14.5867 11.8315 14.4569 11.5078 14.415 11.1668C14.373 10.861 14.385 10.5502 14.4507 10.2489C14.5928 9.5925 14.9165 8.99145 15.3836 8.51709C15.5429 8.34953 15.717 8.20073 15.907 8.06818C16.2901 7.79428 16.731 7.61648 17.1942 7.54926C17.4627 7.51425 17.7299 7.523 17.9935 7.58927C18.3955 7.69181 18.7241 7.90688 18.9718 8.23699C19.1961 8.53709 19.3114 8.87596 19.3518 9.24358C19.3739 9.44615 19.3714 9.64872 19.342 9.85128L19.3322 9.90755C19.3175 9.97508 19.3052 10.0438 19.2954 10.1126Z" stroke="#909090" stroke-width="2.70924"/>
</g>
</svg>
