<svg width="21" height="18" viewBox="0 0 21 18" fill="none" xmlns="http://www.w3.org/2000/svg">
<mask id="mask0_953_2527" style="mask-type:luminance" maskUnits="userSpaceOnUse" x="0" y="0" width="21" height="18">
<path d="M20.8403 0.0419922H0V17.7563H20.8403V0.0419922Z" fill="white"/>
</mask>
<g mask="url(#mask0_953_2527)">
<mask id="mask1_953_2527" style="mask-type:luminance" maskUnits="userSpaceOnUse" x="0" y="0" width="21" height="18">
<path d="M20.8403 0.0419922H0V17.7563H20.8403V0.0419922Z" fill="white"/>
</mask>
<g mask="url(#mask1_953_2527)">
<path d="M2.21318 11.9747L7.6876 8.56673C7.8578 8.46077 7.91056 8.23731 7.80574 8.06642L4.31631 2.37778C4.26045 2.28671 4.17664 2.23534 4.09889 2.22008C4.02649 2.20589 3.96292 2.22182 3.90854 2.26941C3.15619 2.92766 2.52682 3.72483 2.05528 4.6228C1.42597 5.82124 1.09784 7.16117 1.1011 8.52217L1.10111 8.52494C1.09911 9.68875 1.3384 10.8356 1.79861 11.8914C1.82751 11.9577 1.87848 12.0002 1.9501 12.0192C2.02662 12.0396 2.12361 12.0306 2.21318 11.9747ZM2.21318 11.9747L2.57113 12.5498" stroke="#909090" stroke-width="1.35462"/>
<path d="M4.71426 13.9267C6.16284 15.8511 8.41417 17.079 10.9364 17.079C15.2733 17.079 18.8269 13.438 18.8269 8.89919C18.8269 4.36029 15.2728 0.719362 10.9372 0.719362C9.7193 0.718456 8.52228 1.01003 7.44097 1.56567C7.38145 1.59625 7.34307 1.64608 7.32672 1.71534C7.3093 1.78916 7.31947 1.88182 7.37206 1.96754L10.9078 7.73125C11.4019 8.53681 11.1533 9.59026 10.351 10.0898L4.83 13.5277C4.74369 13.5815 4.69284 13.661 4.67568 13.7363C4.65954 13.8074 4.67248 13.8712 4.71426 13.9267ZM4.71426 13.9267L4.17908 14.3296" stroke="#909090" stroke-width="1.35462"/>
</g>
</g>
</svg>
