<svg width="31" height="31" viewBox="0 0 31 31" fill="none" xmlns="http://www.w3.org/2000/svg">
<path d="M7.75 28.4166C9.8901 28.4166 11.625 26.6817 11.625 24.5416C11.625 22.4015 9.8901 20.6666 7.75 20.6666C5.6099 20.6666 3.875 22.4015 3.875 24.5416C3.875 26.6817 5.6099 28.4166 7.75 28.4166Z" stroke="white" stroke-width="2.58333" stroke-linecap="round" stroke-linejoin="round"/>
<path d="M11.625 24.5417H22.6042C23.8032 24.5417 24.9531 24.0654 25.8009 23.2176C26.6487 22.3698 27.125 21.2199 27.125 20.0209C27.125 18.8219 26.6487 17.672 25.8009 16.8242C24.9531 15.9763 23.8032 15.5 22.6042 15.5H8.39583C7.19683 15.5 6.04694 15.0237 5.19912 14.1759C4.3513 13.3281 3.875 12.1782 3.875 10.9792C3.875 9.78021 4.3513 8.63032 5.19912 7.7825C6.04694 6.93468 7.19683 6.45837 8.39583 6.45837H19.375" stroke="white" stroke-width="2.58333" stroke-linecap="round" stroke-linejoin="round"/>
<path d="M23.25 10.3334C25.3901 10.3334 27.125 8.59848 27.125 6.45837C27.125 4.31827 25.3901 2.58337 23.25 2.58337C21.1099 2.58337 19.375 4.31827 19.375 6.45837C19.375 8.59848 21.1099 10.3334 23.25 10.3334Z" stroke="white" stroke-width="2.58333" stroke-linecap="round" stroke-linejoin="round"/>
</svg>
