<svg width="19" height="19" viewBox="0 0 19 19" fill="none" xmlns="http://www.w3.org/2000/svg">
<mask id="mask0_953_2566" style="mask-type:luminance" maskUnits="userSpaceOnUse" x="0" y="0" width="19" height="19">
<path d="M18.7563 0H0V18.7563H18.7563V0Z" fill="white"/>
</mask>
<g mask="url(#mask0_953_2566)">
<mask id="mask1_953_2566" style="mask-type:luminance" maskUnits="userSpaceOnUse" x="0" y="0" width="19" height="19">
<path d="M4.90188 0H18.7563V13.0575L11.9685 6.2697L10.6734 7.56487L7.00574 3.89728L7.31756 1.88472L4.90188 0ZM6.2697 11.9685L7.56487 10.6734L3.89728 7.00574L1.88472 7.31756L0 4.90188V18.7563H13.0575L6.2697 11.9685Z" fill="white"/>
</mask>
<g mask="url(#mask1_953_2566)">
<path d="M3.85952 17.4871C3.14422 18.2025 1.98445 18.2025 1.26914 17.4871C0.55384 16.7719 0.55384 15.6121 1.26914 14.8968L8.64268 7.52324C9.12627 7.03964 9.35278 6.35911 9.26724 5.68058C9.10319 4.37929 9.5207 3.01873 10.5199 2.01948C11.7748 0.764641 13.5993 0.427976 15.1607 1.0076L15.4185 1.26542L13.1308 3.55321C12.5497 4.13422 12.5387 5.09621 13.1307 5.66598C13.7044 6.21815 14.6171 6.21148 15.1826 5.64597L17.4909 3.33769L17.7487 3.59552C18.3283 5.15702 17.9917 6.98148 16.7369 8.23635C15.7376 9.2356 14.377 9.65303 13.0757 9.48902C12.3972 9.40347 11.7166 9.63001 11.2331 10.1136L3.85952 17.4871Z" stroke="#909090" stroke-width="1.46534" stroke-miterlimit="10"/>
</g>
<path d="M4.66294 4.66294L10.6734 10.6734M4.66294 4.66294L2.8238 4.94788L0.984619 2.59063L2.59063 0.984619L4.94791 2.82376L4.66294 4.66294ZM9.37818 11.9686L14.8968 17.4873C15.6121 18.2025 16.7719 18.2025 17.4873 17.4873C18.2025 16.7719 18.2025 15.6121 17.4873 14.8968L11.9686 9.37818L9.37818 11.9686Z" stroke="#909090" stroke-width="1.46534" stroke-miterlimit="10"/>
</g>
</svg>
