<svg width="21" height="18" viewBox="0 0 21 18" fill="none" xmlns="http://www.w3.org/2000/svg">
<path d="M20.0135 3.58485H18.1634V2.99437C18.1634 2.7707 18.037 2.56628 17.8369 2.46621L15.4751 1.28526C15.393 1.24446 15.3026 1.22313 15.211 1.22294H13.338C13.0943 0.53571 12.4379 0.0419922 11.6682 0.0419922H2.22052C1.24376 0.0419922 0.449097 0.836655 0.449097 1.81342V6.53723C0.449097 7.51399 1.24376 8.30865 2.22052 8.30865H2.68708L1.77054 13.0905C1.01103 13.2902 0.449097 13.9826 0.449097 14.8039V15.9848C0.449097 16.9616 1.24376 17.7563 2.22052 17.7563H6.94433C7.9211 17.7563 8.71576 16.9616 8.71576 15.9848V14.8039C8.71576 13.8271 7.9211 13.0325 6.94433 13.0325H6.52698L6.97969 10.6706H7.92051C8.76887 10.6706 9.50054 10.0659 9.66028 9.23263L9.83743 8.30865H11.6682C12.4379 8.30865 13.0943 7.81494 13.338 7.12771H15.2114C15.3028 7.12762 15.3986 7.10357 15.4751 7.06539L17.8369 5.88443C17.9351 5.8354 18.0175 5.76001 18.0752 5.66672C18.1329 5.57343 18.1634 5.46594 18.1634 5.35628V4.7658H20.0135C20.3396 4.7658 20.604 4.50143 20.604 4.17533C20.604 3.84923 20.3396 3.58485 20.0135 3.58485ZM6.94433 14.2134C7.26992 14.2134 7.53481 14.4783 7.53481 14.8039V15.9848C7.53481 16.3105 7.26992 16.5754 6.94433 16.5754H2.22052C1.89494 16.5754 1.63004 16.3105 1.63004 15.9848V14.8039C1.63004 14.4783 1.89494 14.2134 2.22052 14.2134H6.94433ZM2.98412 13.0325L3.88952 8.30865H6.22993L5.9134 9.96022L5.91293 9.96262L5.32454 13.0325H2.98412ZM8.50044 9.0103C8.44718 9.28803 8.20331 9.48965 7.92051 9.48965H7.20603L7.43238 8.30865H8.63495L8.50044 9.0103ZM9.89672 7.12771H2.22052C1.89494 7.12771 1.63004 6.86281 1.63004 6.53723V1.81342C1.63004 1.48783 1.89494 1.22294 2.22052 1.22294H9.89672V7.12771ZM12.2586 6.53723C12.2586 6.86281 11.9937 7.12771 11.6682 7.12771H11.0777V1.22294H11.6682C11.9937 1.22294 12.2586 1.48783 12.2586 1.81342V6.53723ZM14.6205 5.94676H13.4396V2.4039H14.6205V5.94676ZM16.9825 4.99132L15.8015 5.5818V2.76881L16.9825 3.35928V4.99132Z" fill="#909090"/>
<path d="M8.12545 2.40381H3.40164C3.07554 2.40381 2.81116 2.66819 2.81116 2.99429C2.81116 3.32039 3.07554 3.58477 3.40164 3.58477H8.12545C8.45155 3.58477 8.71592 3.32039 8.71592 2.99429C8.71592 2.66819 8.45155 2.40381 8.12545 2.40381ZM8.12545 4.76572H3.40164C3.07554 4.76572 2.81116 5.03009 2.81116 5.3562C2.81116 5.6823 3.07554 5.94667 3.40164 5.94667H8.12545C8.45155 5.94667 8.71592 5.6823 8.71592 5.3562C8.71592 5.03009 8.45155 4.76572 8.12545 4.76572Z" fill="#909090"/>
</svg>
