<svg width="21" height="21" viewBox="0 0 21 21" fill="none" xmlns="http://www.w3.org/2000/svg">
<mask id="mask0_953_2538" style="mask-type:luminance" maskUnits="userSpaceOnUse" x="0" y="0" width="21" height="21">
<path d="M20.8403 0H0V20.8403H20.8403V0Z" fill="white"/>
</mask>
<g mask="url(#mask0_953_2538)">
<path d="M20.0588 10.4203C20.0588 5.09699 15.7434 0.781616 10.4201 0.781616C5.09687 0.781616 0.781494 5.09699 0.781494 10.4203C0.781494 15.7436 5.09687 20.0589 10.4201 20.0589C15.7434 20.0589 20.0588 15.7436 20.0588 10.4203Z" stroke="#909090" stroke-width="1.56303"/>
<path d="M13.2104 8.81515H14.2808V10.0588H6.26782V8.81515H11.4157C11.615 8.58426 11.7147 8.31664 11.7147 8.01227C11.7147 7.62396 11.5731 7.31435 11.2897 7.08346C11.0064 6.85256 10.6338 6.73712 10.172 6.73712C9.35338 6.73712 8.63971 7.10445 8.031 7.83911L7.02347 6.83158C7.71614 5.75058 8.77615 5.21008 10.2035 5.21008C11.1585 5.21008 11.9299 5.46721 12.5176 5.98148C13.1158 6.48524 13.415 7.15167 13.415 7.98079C13.415 8.33762 13.3468 8.61575 13.2104 8.81515ZM6.25208 12.4202V11.1766H14.2808V12.4202H8.73941C8.66595 12.5671 8.62922 12.7561 8.62922 12.987C8.62922 13.4277 8.78139 13.7793 9.08576 14.0417C9.39011 14.2936 9.80466 14.4195 10.3294 14.4195C10.8437 14.4195 11.3422 14.2989 11.825 14.0574C12.3078 13.8056 12.7223 13.454 13.0686 13.0027L14.0447 14.0102C13.6459 14.619 13.1158 15.0964 12.4547 15.4428C11.7935 15.7786 11.0798 15.9466 10.3137 15.9466C9.30615 15.9466 8.48753 15.6737 7.85782 15.128C7.22812 14.5718 6.91327 13.8581 6.91327 12.987C6.91327 12.7666 6.93425 12.5777 6.97624 12.4202H6.25208Z" fill="#909090"/>
</g>
</svg>
