<svg width="19" height="15" viewBox="0 0 19 15" fill="none" xmlns="http://www.w3.org/2000/svg">
<path d="M3.09146 7.0577C2.70047 7.44875 2.70047 8.085 3.09146 8.47982C3.48246 8.87089 4.11878 8.87089 4.51361 8.47982C7.21991 5.77354 11.6244 5.77354 14.3306 8.47982C14.5262 8.67541 14.783 8.77502 15.0398 8.77502C15.2967 8.77502 15.5535 8.67541 15.749 8.47982C16.14 8.08886 16.14 7.4525 15.749 7.0577C12.2606 3.56557 6.57976 3.56557 3.09146 7.0577Z" fill="#909090"/>
<path d="M5.80533 9.7717C5.41434 10.1628 5.41434 10.799 5.80533 11.1938C6.19633 11.5849 6.83266 11.5849 7.22749 11.1938C8.43498 9.9826 10.4053 9.9826 11.6128 11.1938C11.8083 11.3893 12.0651 11.489 12.322 11.489C12.5788 11.489 12.8356 11.3893 13.0312 11.1938C13.4221 10.8029 13.4221 10.1665 13.0312 9.77555C11.0416 7.77842 7.79865 7.77842 5.80533 9.7717Z" fill="#909090"/>
<path d="M9.42021 14.7205C10.1591 14.7205 10.7581 14.1214 10.7581 13.3826C10.7581 12.6438 10.1591 12.0448 9.42021 12.0448C8.68136 12.0448 8.0824 12.6438 8.0824 13.3826C8.0824 14.1214 8.68136 14.7205 9.42021 14.7205Z" fill="#909090"/>
<path d="M18.5051 4.29768C13.4949 -0.7086 5.34536 -0.7086 0.335237 4.29768C-0.055756 4.68867 -0.055756 5.325 0.335237 5.71983C0.726233 6.11083 1.36256 6.11083 1.75739 5.71983C5.98168 1.49171 12.8586 1.49171 17.0867 5.71983C17.2823 5.91532 17.539 6.01499 17.7959 6.01499C18.0527 6.01499 18.3096 5.91532 18.5051 5.71983C18.896 5.32883 18.896 4.69251 18.5051 4.29768Z" fill="#909090"/>
</svg>
