<svg width="450" height="107" viewBox="0 0 450 107" fill="none" xmlns="http://www.w3.org/2000/svg">
<g clip-path="url(#clip0_95_6)">
<path fill-rule="evenodd" clip-rule="evenodd" d="M28.5526 10.6837H22.8423L26.8078 14.8925L62.6555 51.4766L62.8139 50.6671C63.1311 48.7248 63.1311 46.7824 63.1311 45.1636C63.1311 37.5552 60.2762 27.0332 54.0899 20.8819C46.9524 13.9212 38.8628 10.6837 28.5526 10.6837Z" fill="#FF2F00"/>
<path fill-rule="evenodd" clip-rule="evenodd" d="M45.0475 54.8749L44.889 55.0366C41.2406 60.5405 34.103 64.2639 27.2823 64.2639H17.448V26.7083L0 8.90186V80.4515H27.7581C39.3373 80.4515 46.9508 77.5375 54.4059 70.415C55.5163 69.4439 56.3095 68.1489 56.944 67.3395L57.1024 67.1774L45.2062 55.0366L45.0475 54.8749Z" fill="#FF2F00"/>
<path fill-rule="evenodd" clip-rule="evenodd" d="M188.281 80.4515H205.888V61.1883L188.281 43.2197V80.4515Z" fill="#FF2F00"/>
<path fill-rule="evenodd" clip-rule="evenodd" d="M205.57 10.6837H188.281V21.8532L205.888 39.8217V26.7095H213.502C219.846 26.7095 222.542 26.7095 224.922 29.1377C227.459 31.7277 227.618 35.2889 227.618 35.9366C227.618 38.0408 227.459 40.469 225.239 42.8973C222.859 45.4873 218.894 47.268 214.611 47.7536H213.977L225.715 59.7323H226.032C231.108 58.7611 234.915 56.9805 237.928 54.0666C244.432 47.7536 245.224 41.1164 245.224 35.2889C245.224 33.5083 244.907 24.2813 237.77 17.3206C230.791 10.6837 223.494 10.6837 205.57 10.6837Z" fill="#FF2F00"/>
<path fill-rule="evenodd" clip-rule="evenodd" d="M154.652 66.3683L172.259 84.3369V26.7083L154.652 8.90186V66.3683Z" fill="#FF2F00"/>
<path fill-rule="evenodd" clip-rule="evenodd" d="M357.366 9.38977C350.706 9.38977 344.044 11.3323 338.175 15.0555L337.858 15.2173L349.754 27.3581L349.913 27.5199H350.071C352.448 26.3868 354.828 25.9012 357.366 25.9012C367.517 25.9012 375.766 34.8044 375.766 45.8119C375.766 48.0782 375.449 50.1826 374.657 52.4491V52.6109L387.345 65.5612L387.504 65.7229L387.662 65.5612C391.468 59.5716 393.531 52.7726 393.531 45.8119C393.372 25.5774 377.195 9.38977 357.366 9.38977Z" fill="#FF2F00"/>
<path fill-rule="evenodd" clip-rule="evenodd" d="M364.661 63.9406C362.284 65.0739 359.746 65.5595 357.366 65.5595C347.215 65.5595 338.966 56.6561 338.966 45.6486C338.966 43.5441 339.284 41.2779 340.076 39.0116V38.8496L327.387 25.8996L327.228 25.7377L327.07 25.8996C323.264 31.8889 321.201 38.6879 321.201 45.4867C321.201 65.3974 337.379 81.7473 357.207 81.7473C363.869 81.7473 370.53 79.8046 376.24 76.2431L376.557 76.0812L364.661 63.9406Z" fill="#FF2F00"/>
<path fill-rule="evenodd" clip-rule="evenodd" d="M138.633 10.5211H121.026V32.0508L138.633 50.0191V10.5211Z" fill="#FF2F00"/>
<path fill-rule="evenodd" clip-rule="evenodd" d="M138.79 71.7101L94.0595 26.0611L77.2461 9.06396V66.3685L94.8529 84.3368V50.1806L138.472 94.2114L138.949 94.5351L138.79 71.7101Z" fill="#FF2F00"/>
<path fill-rule="evenodd" clip-rule="evenodd" d="M272.823 26.5476H281.865C288.209 26.5476 290.43 26.7095 292.492 28.8139C294.871 31.2421 294.871 34.4795 294.871 35.1272C294.871 37.3934 294.554 39.0122 292.492 41.1164C291.699 41.9258 290.747 42.5735 289.478 43.0591L289.002 43.2208L300.741 55.1999L300.898 55.3616L301.216 55.1999C302.802 54.3904 304.23 53.4192 305.499 52.1243C311.685 46.1348 312.478 39.6596 312.478 34.1557C312.478 32.375 312.161 23.6338 305.34 16.9969C298.837 10.6837 291.858 10.6837 274.727 10.6837H257.279L272.823 26.5476Z" fill="#FF2F00"/>
<path fill-rule="evenodd" clip-rule="evenodd" d="M255.851 30.7563V80.4522H272.664V69.2829L309.464 107H309.622H330.559L256.168 31.0801L255.851 30.7563Z" fill="#FF2F00"/>
<path fill-rule="evenodd" clip-rule="evenodd" d="M427.475 23.1484L404.794 0V45.6493H417.325V29.4615L427.317 39.6598L427.475 39.8219L437.629 29.6234V45.6493H450V0L427.475 23.1484Z" fill="white"/>
</g>
<defs>
<clipPath id="clip0_95_6">
<rect width="450" height="107" fill="white"/>
</clipPath>
</defs>
</svg>
