<svg width="317" height="233" viewBox="0 0 317 233" fill="none" xmlns="http://www.w3.org/2000/svg">
<g clip-path="url(#clip0_104_22)">
<path fill-rule="evenodd" clip-rule="evenodd" d="M88.9069 16.2491H71.1261L83.4739 29.3475L195.097 143.203L195.591 140.683C196.578 134.639 196.578 128.594 196.578 123.556C196.578 99.8771 187.689 67.1313 168.426 47.9875C146.201 26.3248 121.011 16.2491 88.9069 16.2491Z" fill="#FF2F00"/>
<path fill-rule="evenodd" clip-rule="evenodd" d="M140.27 153.779L139.776 154.282C128.416 171.411 106.191 182.999 84.9523 182.999H54.33V66.1202L0 10.7039V233.377H86.4339C122.489 233.377 146.196 224.308 169.41 202.142C172.868 199.12 175.338 195.09 177.313 192.571L177.807 192.066L140.764 154.282L140.27 153.779Z" fill="#FF2F00"/>
<path fill-rule="evenodd" clip-rule="evenodd" d="M267.172 51.2164L217 0V101H244.718V65.1843L266.822 87.7481L267.172 88.1068L289.633 65.5425V101H317V0L267.172 51.2164Z" fill="white"/>
</g>
<defs>
<clipPath id="clip0_104_22">
<rect width="317" height="233" fill="white"/>
</clipPath>
</defs>
</svg>
